# xmcd
#
# Track frame offsets:
#	150
#	25530
#	53614
#	73347
#	96925
#	123700
#	141317
#	170630
#	193112
#	218277
#
# Disc length: 3242 seconds
#
# Revision: 0
# Processed by: cddbd v1.5.1PL0 Copyright (c) Steve Scherf et al.
# Submitted via: EasyCDDAExtractor 8.1.4.1
#
DISCID=910ca80a
DTITLE=Various Artist - Bien Man
DYEAR=1996
DGENRE=
TTITLE0=Tuan Vu - Phuong Mai - Neu chung minh cach tro
TTITLE1=Phuong Mai - Bien man
TTITLE2=Tuan Vu - Thoi doi
TTITLE3=Phuong Mai - Nhung ngay xua than ai
TTITLE4=Tuan Vu - Giong ca di vang
TTITLE5=Tuan Vu - Phuong Mai - Con duong xua em di
TTITLE6=Tuan Vu - Tam su nguoi linh tre
TTITLE7=Phuong Mai - Nhat ky doi toi
TTITLE8=Tuan Vu - Noi buon chau pha
TTITLE9=Tuan Vu - Con thuong rau dang moc sau he
EXTD=
EXTT0=
EXTT1=
EXTT2=
EXTT3=
EXTT4=
EXTT5=
EXTT6=
EXTT7=
EXTT8=
EXTT9=
PLAYORDER=
